# Blender 3.5.1
# www.blender.org
o Cube.001
v -1.861869 -0.184390 3.743157
v -1.861869 -0.184390 -3.743157
v 1.861869 0.184390 3.743157
v 1.861869 -0.184390 3.743157
v 1.861869 0.184390 -3.743157
v 1.861869 -0.184390 -3.743157
v -0.922501 0.184390 3.743157
v -1.861869 0.091360 3.743157
v -1.069450 0.183244 3.743157
v -1.212782 0.179836 3.743157
v -1.348965 0.174250 3.743157
v -1.474648 0.166622 3.743157
v -1.586735 0.157142 3.743157
v -1.682466 0.146041 3.743157
v -1.759484 0.133594 3.743157
v -1.815894 0.120107 3.743157
v -1.850304 0.105913 3.743157
v -1.861869 0.091360 -3.743157
v -0.922501 0.184390 -3.743157
v -1.850304 0.105913 -3.743157
v -1.815894 0.120107 -3.743157
v -1.759484 0.133594 -3.743157
v -1.682466 0.146041 -3.743157
v -1.586735 0.157142 -3.743157
v -1.474648 0.166622 -3.743157
v -1.348965 0.174250 -3.743157
v -1.212782 0.179836 -3.743157
v -1.069450 0.183244 -3.743157
vn -0.0000 -0.0000 -1.0000
vn 1.0000 -0.0000 -0.0000
vn -0.0000 -1.0000 -0.0000
vn -0.0000 1.0000 -0.0000
vn -1.0000 -0.0000 -0.0000
vn -0.0078 1.0000 -0.0000
vn -0.0238 0.9997 -0.0000
vn -0.0410 0.9992 -0.0000
vn -0.0606 0.9982 -0.0000
vn -0.0843 0.9964 -0.0000
vn -0.1152 0.9933 -0.0000
vn -0.1595 0.9872 -0.0000
vn -0.2325 0.9726 -0.0000
vn -0.3813 0.9244 -0.0000
vn -0.7829 0.6222 -0.0000
vn -0.0000 -0.0000 1.0000
vn -0.0000 0.0002 1.0000
vn -0.0000 -0.0001 1.0000
vn -0.0000 -0.0001 -1.0000
vn -0.0000 0.0001 -1.0000
vt 0.140573 0.617576
vt 0.375000 0.500000
vt 0.140573 0.920889
vt 0.375000 0.750000
vt 0.747199 0.617576
vt 0.443886 0.314263
vt 0.375000 0.250000
vt 0.125000 0.500000
vt 0.140573 0.314263
vt 0.625000 0.000000
vt 0.747199 0.920889
vt 0.625000 1.000000
vt 0.443886 0.010950
vt 0.375000 0.000000
vt 0.375000 1.000000
vt 0.125000 0.750000
vt 0.520401 0.617576
vt 0.443886 0.541061
vt 0.367371 0.617576
vt 0.508431 0.617576
vt 0.442945 0.553030
vt 0.496757 0.617576
vt 0.440141 0.564705
vt 0.485665 0.617576
vt 0.435546 0.575798
vt 0.475427 0.617576
vt 0.429273 0.586035
vt 0.443886 0.617576
vt 0.421475 0.595165
vt 0.412345 0.617576
vt 0.412345 0.602962
vt 0.402108 0.617576
vt 0.402108 0.609236
vt 0.391015 0.617576
vt 0.391015 0.613831
vt 0.379341 0.617576
vt 0.379341 0.616634
vt 0.561934 0.750000
vt 0.367371 0.920889
vt 0.520401 0.920889
vt 0.625000 0.813066
vt 0.443886 0.997404
vt 0.379341 0.921830
vt 0.379341 0.920889
vt 0.391015 0.920889
vt 0.391015 0.924634
vt 0.402108 0.920889
vt 0.402108 0.929229
vt 0.412345 0.920889
vt 0.412345 0.935502
vt 0.443886 0.920889
vt 0.421475 0.943300
vt 0.475427 0.920889
vt 0.429273 0.952430
vt 0.485665 0.920889
vt 0.435546 0.962667
vt 0.496757 0.920889
vt 0.440141 0.973760
vt 0.508431 0.920889
vt 0.442945 0.985434
s 0
f 21/46/1 25/54/1 19/42/1
f 5/10/2 4/7/2 6/14/2
f 1/2/3 6/16/3 4/8/3
f 3/5/4 19/40/4 7/17/4
f 8/19/5 2/3/5 1/1/5
f 19/40/6 9/20/6 7/17/6
f 28/59/7 10/22/7 9/20/7
f 27/57/8 11/24/8 10/22/8
f 26/55/9 12/26/9 11/24/9
f 25/53/10 13/28/10 12/26/10
f 24/51/11 14/30/11 13/28/11
f 23/49/12 15/32/12 14/30/12
f 22/47/13 16/34/13 15/32/13
f 21/45/14 17/36/14 16/34/14
f 20/44/15 8/19/15 17/36/15
f 13/29/16 15/33/16 17/37/16
f 3/5/4 5/11/4 19/40/4
f 19/40/6 28/59/6 9/20/6
f 28/59/7 27/57/7 10/22/7
f 27/57/8 26/55/8 11/24/8
f 26/55/9 25/53/9 12/26/9
f 25/53/10 24/51/10 13/28/10
f 24/51/11 23/49/11 14/30/11
f 23/49/12 22/47/12 15/32/12
f 22/47/13 21/45/13 16/34/13
f 21/45/14 20/44/14 17/36/14
f 1/1/16 4/9/16 8/19/16
f 4/9/16 3/6/16 7/18/16
f 17/37/16 7/18/16 9/21/16
f 4/9/16 7/18/16 8/19/16
f 9/21/16 10/23/16 11/25/16
f 11/25/17 12/27/17 13/29/17
f 13/29/16 14/31/16 15/33/16
f 15/33/18 16/35/18 17/37/18
f 17/37/16 8/19/16 7/18/16
f 9/21/16 11/25/16 17/37/16
f 11/25/16 13/29/16 17/37/16
f 6/15/1 2/4/1 18/38/1
f 18/39/1 20/43/1 21/46/1
f 21/46/19 22/48/19 25/54/19
f 22/48/20 23/50/20 25/54/20
f 23/50/1 24/52/1 25/54/1
f 25/54/1 26/56/1 19/42/1
f 26/56/1 27/58/1 19/42/1
f 27/58/1 28/60/1 19/42/1
f 19/41/1 5/12/1 6/15/1
f 6/15/1 18/38/1 19/41/1
f 18/39/1 21/46/1 19/42/1
f 8/19/5 18/39/5 2/3/5
f 20/44/15 18/39/15 8/19/15
f 5/13/2 3/6/2 4/9/2
f 1/2/3 2/4/3 6/16/3
