# Blender 3.5.1
# www.blender.org
mtllib rung.mtl
o Cube
v 3.743157 -0.184390 1.861869
v -3.743157 -0.184390 1.861869
v 3.743157 0.184390 -1.861869
v 3.743157 -0.184390 -1.861869
v -3.743157 0.184390 -1.861869
v -3.743157 -0.184390 -1.861869
v 3.743157 0.184390 0.922501
v 3.743157 0.091360 1.861869
v 3.743157 0.183244 1.069450
v 3.743157 0.179836 1.212782
v 3.743157 0.174250 1.348965
v 3.743157 0.166622 1.474648
v 3.743157 0.157142 1.586735
v 3.743157 0.146041 1.682466
v 3.743157 0.133594 1.759484
v 3.743157 0.120107 1.815894
v 3.743157 0.105913 1.850304
v -3.743157 0.091360 1.861869
v -3.743157 0.184390 0.922501
v -3.743157 0.105913 1.850304
v -3.743157 0.120107 1.815894
v -3.743157 0.133594 1.759484
v -3.743157 0.146041 1.682466
v -3.743157 0.157142 1.586735
v -3.743157 0.166622 1.474648
v -3.743157 0.174250 1.348965
v -3.743157 0.179836 1.212782
v -3.743157 0.183244 1.069450
vn -1.0000 -0.0000 -0.0000
vn -0.0000 -0.0000 -1.0000
vn -0.0000 -1.0000 -0.0000
vn -0.0000 1.0000 -0.0000
vn -0.0000 -0.0000 1.0000
vn -0.0000 1.0000 0.0078
vn -0.0000 0.9997 0.0238
vn -0.0000 0.9992 0.0410
vn -0.0000 0.9982 0.0606
vn -0.0000 0.9964 0.0843
vn -0.0000 0.9933 0.1152
vn -0.0000 0.9872 0.1595
vn -0.0000 0.9726 0.2325
vn -0.0000 0.9244 0.3813
vn -0.0000 0.6221 0.7829
vn 1.0000 -0.0000 -0.0000
vn -0.0000 0.6222 0.7829
vt 0.375000 0.500000
vt 0.375000 0.750000
vt 0.875000 0.500000
vt 0.625000 0.250000
vt 0.125000 0.500000
vt 0.375000 0.250000
vt 0.875000 0.750000
vt 0.625000 1.000000
vt 0.625000 0.000000
vt 0.375000 0.000000
vt 0.375000 1.000000
vt 0.125000 0.750000
vt 0.688066 0.500000
vt 0.625000 0.436934
vt 0.561934 0.500000
vt 0.678200 0.500000
vt 0.624224 0.446799
vt 0.668578 0.500000
vt 0.621913 0.456422
vt 0.659435 0.500000
vt 0.618126 0.465565
vt 0.650997 0.500000
vt 0.612955 0.474003
vt 0.625000 0.500000
vt 0.606528 0.481528
vt 0.599003 0.500000
vt 0.599003 0.487955
vt 0.590565 0.500000
vt 0.590565 0.493126
vt 0.581422 0.500000
vt 0.581422 0.496913
vt 0.571800 0.500000
vt 0.571800 0.499224
vt 0.561934 0.750000
vt 0.688066 0.750000
vt 0.625000 0.813066
vt 0.571800 0.750776
vt 0.571800 0.750000
vt 0.581422 0.750000
vt 0.581422 0.753087
vt 0.590565 0.750000
vt 0.590565 0.756874
vt 0.599003 0.750000
vt 0.599003 0.762045
vt 0.625000 0.750000
vt 0.606528 0.768472
vt 0.650997 0.750000
vt 0.612955 0.775997
vt 0.659435 0.750000
vt 0.618126 0.784435
vt 0.668578 0.750000
vt 0.621913 0.793578
vt 0.678200 0.750000
vt 0.624224 0.803200
s 0
usemtl Material.001
f 21/40/1 25/48/1 19/36/1
f 5/9/2 4/6/2 6/10/2
f 1/1/3 6/12/3 4/5/3
f 3/3/4 19/35/4 7/13/4
f 8/15/5 2/2/5 1/1/5
f 19/35/6 9/16/6 7/13/6
f 28/53/7 10/18/7 9/16/7
f 27/51/8 11/20/8 10/18/8
f 26/49/9 12/22/9 11/20/9
f 25/47/10 13/24/10 12/22/10
f 24/45/11 14/26/11 13/24/11
f 23/43/12 15/28/12 14/26/12
f 22/41/13 16/30/13 15/28/13
f 21/39/14 17/32/14 16/30/14
f 20/38/15 8/15/15 17/32/15
f 13/25/16 15/29/16 17/33/16
f 3/3/4 5/7/4 19/35/4
f 19/35/6 28/53/6 9/16/6
f 28/53/7 27/51/7 10/18/7
f 27/51/8 26/49/8 11/20/8
f 26/49/9 25/47/9 12/22/9
f 25/47/10 24/45/10 13/24/10
f 24/45/11 23/43/11 14/26/11
f 23/43/12 22/41/12 15/28/12
f 22/41/13 21/39/13 16/30/13
f 21/39/14 20/38/14 17/32/14
f 1/1/16 4/6/16 8/15/16
f 4/6/16 3/4/16 7/14/16
f 17/33/16 7/14/16 9/17/16
f 4/6/16 7/14/16 8/15/16
f 9/17/16 10/19/16 11/21/16
f 11/21/16 12/23/16 13/25/16
f 13/25/16 14/27/16 15/29/16
f 15/29/16 16/31/16 17/33/16
f 17/33/16 8/15/16 7/14/16
f 9/17/16 11/21/16 17/33/16
f 11/21/16 13/25/16 17/33/16
f 6/11/1 2/2/1 18/34/1
f 18/34/1 20/37/1 21/40/1
f 21/40/1 22/42/1 25/48/1
f 22/42/1 23/44/1 25/48/1
f 23/44/1 24/46/1 25/48/1
f 25/48/1 26/50/1 19/36/1
f 26/50/1 27/52/1 19/36/1
f 27/52/1 28/54/1 19/36/1
f 19/36/1 5/8/1 6/11/1
f 6/11/1 18/34/1 19/36/1
f 18/34/1 21/40/1 19/36/1
f 8/15/5 18/34/5 2/2/5
f 20/38/17 18/34/17 8/15/17
f 5/9/2 3/4/2 4/6/2
f 1/1/3 2/2/3 6/12/3
